<svg xmlns="http://www.w3.org/2000/svg" xmlns:xlink="http://www.w3.org/1999/xlink" contentStyleType="text/css" data-diagram-type="SEQUENCE" height="386px" preserveAspectRatio="none" style="width:570px;height:386px;background:#FFFFFF;" version="1.1" viewBox="0 0 570 386" width="570px" zoomAndPan="magnify"><defs/><g><g><title>Operator</title><rect fill="#000000" fill-opacity="0.00000" height="223.9297" width="8" x="35.3325" y="81.2969"/><line style="stroke:#181818;stroke-width:0.5;stroke-dasharray:5.0,5.0;" x1="39" x2="39" y1="81.2969" y2="305.2266"/></g><g><title>TestDriver</title><rect fill="#000000" fill-opacity="0.00000" height="223.9297" width="8" x="161.9424" y="81.2969"/><line style="stroke:#181818;stroke-width:0.5;stroke-dasharray:5.0,5.0;" x1="165.4282" x2="165.4282" y1="81.2969" y2="305.2266"/></g><g><title>ScenarioManager</title><rect fill="#000000" fill-opacity="0.00000" height="223.9297" width="8" x="283.5698" y="81.2969"/><line style="stroke:#181818;stroke-width:0.5;stroke-dasharray:5.0,5.0;" x1="287.4565" x2="287.4565" y1="81.2969" y2="305.2266"/></g><g><title>AgentSidecar</title><rect fill="#000000" fill-opacity="0.00000" height="223.9297" width="8" x="415.5571" y="81.2969"/><line style="stroke:#181818;stroke-width:0.5;stroke-dasharray:5.0,5.0;" x1="418.6831" x2="418.6831" y1="81.2969" y2="305.2266"/></g><g><title>DBPod</title><rect fill="#000000" fill-opacity="0.00000" height="223.9297" width="8" x="530.3667" y="81.2969"/><line style="stroke:#181818;stroke-width:0.5;stroke-dasharray:5.0,5.0;" x1="534.2271" x2="534.2271" y1="81.2969" y2="305.2266"/></g><g class="participant participant-head" data-participant="Operator"><text fill="#000000" font-family="sans-serif" font-size="14" lengthAdjust="spacing" textLength="62.665" x="5" y="77.9951">Operator</text><ellipse cx="39.3325" cy="13.5" fill="#E2E2F0" rx="8" ry="8" style="stroke:#181818;stroke-width:0.5;"/><path d="M39.3325,21.5 L39.3325,48.5 M26.3325,29.5 L52.3325,29.5 M39.3325,48.5 L26.3325,63.5 M39.3325,48.5 L52.3325,63.5" fill="none" style="stroke:#181818;stroke-width:0.5;"/></g><g class="participant participant-tail" data-participant="Operator"><text fill="#000000" font-family="sans-serif" font-size="14" lengthAdjust="spacing" textLength="62.665" x="5" y="317.2217">Operator</text><ellipse cx="39.3325" cy="329.0234" fill="#E2E2F0" rx="8" ry="8" style="stroke:#181818;stroke-width:0.5;"/><path d="M39.3325,337.0234 L39.3325,364.0234 M26.3325,345.0234 L52.3325,345.0234 M39.3325,364.0234 L26.3325,379.0234 M39.3325,364.0234 L52.3325,379.0234" fill="none" style="stroke:#181818;stroke-width:0.5;"/></g><g class="participant participant-head" data-participant="TestDriver"><rect fill="#E2E2F0" height="30.2969" rx="2.5" ry="2.5" style="stroke:#181818;stroke-width:0.5;" width="87.0283" x="122.4282" y="50"/><text fill="#000000" font-family="sans-serif" font-size="14" lengthAdjust="spacing" textLength="73.0283" x="129.4282" y="69.9951">TestDriver</text></g><g class="participant participant-tail" data-participant="TestDriver"><rect fill="#E2E2F0" height="30.2969" rx="2.5" ry="2.5" style="stroke:#181818;stroke-width:0.5;" width="87.0283" x="122.4282" y="304.2266"/><text fill="#000000" font-family="sans-serif" font-size="14" lengthAdjust="spacing" textLength="73.0283" x="129.4282" y="324.2217">TestDriver</text></g><g class="participant participant-head" data-participant="ScenarioManager"><rect fill="#E2E2F0" height="30.2969" rx="2.5" ry="2.5" style="stroke:#181818;stroke-width:0.5;" width="136.2266" x="219.4565" y="50"/><text fill="#000000" font-family="sans-serif" font-size="14" lengthAdjust="spacing" textLength="122.2266" x="226.4565" y="69.9951">ScenarioManager</text></g><g class="participant participant-tail" data-participant="ScenarioManager"><rect fill="#E2E2F0" height="30.2969" rx="2.5" ry="2.5" style="stroke:#181818;stroke-width:0.5;" width="136.2266" x="219.4565" y="304.2266"/><text fill="#000000" font-family="sans-serif" font-size="14" lengthAdjust="spacing" textLength="122.2266" x="226.4565" y="324.2217">ScenarioManager</text></g><g class="participant participant-head" data-participant="AgentSidecar"><rect fill="#E2E2F0" height="30.2969" rx="2.5" ry="2.5" style="stroke:#181818;stroke-width:0.5;" width="107.748" x="365.6831" y="50"/><text fill="#000000" font-family="sans-serif" font-size="14" lengthAdjust="spacing" textLength="93.748" x="372.6831" y="69.9951">AgentSidecar</text></g><g class="participant participant-tail" data-participant="AgentSidecar"><rect fill="#E2E2F0" height="30.2969" rx="2.5" ry="2.5" style="stroke:#181818;stroke-width:0.5;" width="107.748" x="365.6831" y="304.2266"/><text fill="#000000" font-family="sans-serif" font-size="14" lengthAdjust="spacing" textLength="93.748" x="372.6831" y="324.2217">AgentSidecar</text></g><g class="participant participant-head" data-participant="DBPod"><rect fill="#E2E2F0" height="30.2969" rx="2.5" ry="2.5" style="stroke:#181818;stroke-width:0.5;" width="60.2793" x="504.2271" y="50"/><text fill="#000000" font-family="sans-serif" font-size="14" lengthAdjust="spacing" textLength="46.2793" x="511.2271" y="69.9951">DBPod</text></g><g class="participant participant-tail" data-participant="DBPod"><rect fill="#E2E2F0" height="30.2969" rx="2.5" ry="2.5" style="stroke:#181818;stroke-width:0.5;" width="60.2793" x="504.2271" y="304.2266"/><text fill="#000000" font-family="sans-serif" font-size="14" lengthAdjust="spacing" textLength="46.2793" x="511.2271" y="324.2217">DBPod</text></g><g class="message" data-participant-1="Operator" data-participant-2="TestDriver"><polygon fill="#181818" points="153.9424,108.4297,163.9424,112.4297,153.9424,116.4297,157.9424,112.4297" style="stroke:#181818;stroke-width:1;"/><line style="stroke:#181818;stroke-width:1;" x1="39.3325" x2="159.9424" y1="112.4297" y2="112.4297"/><text fill="#000000" font-family="sans-serif" font-size="13" lengthAdjust="spacing" textLength="102.6099" x="46.3325" y="107.3638">launch scenario</text></g><g class="message" data-participant-1="TestDriver" data-participant-2="ScenarioManager"><polygon fill="#181818" points="275.5698,137.5625,285.5698,141.5625,275.5698,145.5625,279.5698,141.5625" style="stroke:#181818;stroke-width:1;"/><line style="stroke:#181818;stroke-width:1;" x1="165.9424" x2="281.5698" y1="141.5625" y2="141.5625"/><text fill="#000000" font-family="sans-serif" font-size="13" lengthAdjust="spacing" textLength="95.3418" x="172.9424" y="136.4966">load + expand</text></g><g class="message" data-participant-1="TestDriver" data-participant-2="AgentSidecar"><polygon fill="#181818" points="407.5571,166.6953,417.5571,170.6953,407.5571,174.6953,411.5571,170.6953" style="stroke:#181818;stroke-width:1;"/><line style="stroke:#181818;stroke-width:1;" x1="165.9424" x2="413.5571" y1="170.6953" y2="170.6953"/><text fill="#000000" font-family="sans-serif" font-size="13" lengthAdjust="spacing" textLength="155.7271" x="172.9424" y="165.6294">deploy DB (via SSH/API)</text></g><g class="message" data-participant-1="TestDriver" data-participant-2="AgentSidecar"><polygon fill="#181818" points="407.5571,195.8281,417.5571,199.8281,407.5571,203.8281,411.5571,199.8281" style="stroke:#181818;stroke-width:1;"/><line style="stroke:#181818;stroke-width:1;" x1="165.9424" x2="413.5571" y1="199.8281" y2="199.8281"/><text fill="#000000" font-family="sans-serif" font-size="13" lengthAdjust="spacing" textLength="152.1152" x="172.9424" y="194.7622">inject fault (tc / restart)</text></g><g class="message" data-participant-1="TestDriver" data-participant-2="AgentSidecar"><polygon fill="#181818" points="407.5571,224.9609,417.5571,228.9609,407.5571,232.9609,411.5571,228.9609" style="stroke:#181818;stroke-width:1;"/><line style="stroke:#181818;stroke-width:1;" x1="165.9424" x2="413.5571" y1="228.9609" y2="228.9609"/><text fill="#000000" font-family="sans-serif" font-size="13" lengthAdjust="spacing" textLength="90.9429" x="172.9424" y="223.895">start load tool</text></g><g class="message" data-participant-1="AgentSidecar" data-participant-2="DBPod"><polygon fill="#181818" points="522.3667,254.0938,532.3667,258.0938,522.3667,262.0938,526.3667,258.0938" style="stroke:#181818;stroke-width:1;"/><line style="stroke:#181818;stroke-width:1;" x1="419.5571" x2="528.3667" y1="258.0938" y2="258.0938"/><text fill="#000000" font-family="sans-serif" font-size="13" lengthAdjust="spacing" textLength="90.8096" x="426.5571" y="253.0278">generate load</text></g><g class="message" data-participant-1="TestDriver" data-participant-2="AgentSidecar"><polygon fill="#181818" points="407.5571,283.2266,417.5571,287.2266,407.5571,291.2266,411.5571,287.2266" style="stroke:#181818;stroke-width:1;"/><line style="stroke:#181818;stroke-width:1;" x1="165.9424" x2="413.5571" y1="287.2266" y2="287.2266"/><text fill="#000000" font-family="sans-serif" font-size="13" lengthAdjust="spacing" textLength="130.584" x="172.9424" y="282.1606">shutdown + archive</text></g><!--SRC=[XP2n3e9038RtUugE66FS7Kmm33eOIV05chiAPyZTvIYeRsz1JO11jgR_rxz_YvfzX4kWY5AeW96jjW4TmvKQpgBjQDekD3cCrf_HOJdJqf8S5zQGngcG7N9lbFhjWSr-P0yxgB5rkeBcwwr6eg2pbJtlqS0Qw2dkPaQFGmXgADJ-9GaWwIn2KHotQNvQ_H-oxawQuOPjpP2mXYr4uUMYXS61-SHZxsiraGKV7Y6SjFjNq80kM5Oj6_zmSYz6NGdr1W00]--></g></svg>